<svg width="24" height="24" viewBox="0 0 24 24" fill="none" xmlns="http://www.w3.org/2000/svg">
<path d="M13.3259 12L23.7254 1.60046C24.0915 1.23432 24.0915 0.640697 23.7254 0.274605C23.3593 -0.091488 22.7656 -0.0915349 22.3995 0.274605L12 10.6742L1.60046 0.274605C1.23432 -0.0915349 0.640697 -0.0915349 0.274605 0.274605C-0.091488 0.640744 -0.0915349 1.23437 0.274605 1.60046L10.6741 12L0.274605 22.3995C-0.0915349 22.7657 -0.0915349 23.3593 0.274605 23.7254C0.457651 23.9084 0.697603 23.9999 0.937556 23.9999C1.17751 23.9999 1.41741 23.9084 1.60051 23.7254L12 13.3259L22.3995 23.7254C22.5825 23.9084 22.8225 23.9999 23.0624 23.9999C23.3024 23.9999 23.5423 23.9084 23.7254 23.7254C24.0915 23.3593 24.0915 22.7656 23.7254 22.3995L13.3259 12Z" fill="white"/>
</svg>
